<svg width="1396" height="284" viewBox="0 0 1396 284" fill="none" xmlns="http://www.w3.org/2000/svg">
<path d="M674.068 206.651V41.7022H652.888C647.506 41.7022 643.374 44.2698 640.489 49.4051C637.605 54.5404 636.184 60.9153 636.227 68.5297C636.184 76.1441 637.54 82.4304 640.296 87.3886C643.051 92.3468 646.99 94.8259 652.113 94.8259H681.43V129.888H652.113C644.192 129.888 637.347 127.32 631.578 122.185C625.809 117.049 621.375 109.789 618.275 100.404C615.176 91.0187 613.626 80.0398 613.626 67.4672C613.626 54.3634 615.197 42.986 618.34 33.3352C621.526 23.5959 626.046 16.07 631.901 10.7576C637.799 5.35671 644.794 2.65625 652.888 2.65625H695.959V206.651H674.068ZM610.01 206.651L637.713 101.998H660.766L632.999 206.651H610.01Z" fill="white"/>
<path d="M541.904 141.575L581.618 2.65625H605.64V206.651H583.038V67.6L543.454 206.651H519.367V2.65625H541.904V141.575Z" fill="white"/>
<path d="M428.175 42.1006V2.65625H514.964V42.1006H482.87V206.651H460.269V42.1006H428.175Z" fill="white"/>
<path d="M414.539 84.7324V124.177H361.716V84.7324H414.539ZM368.949 2.65625V206.651H346.412V2.65625H368.949ZM429.843 2.65625V206.651H407.371V2.65625H429.843Z" fill="white"/>
<path d="M284.746 210.768C278.461 210.768 272.8 208.466 267.763 203.862C262.769 199.17 258.809 192.264 255.881 183.144C252.997 174.024 251.555 162.78 251.555 149.41C251.555 137.9 252.588 128.382 254.654 120.856C256.721 113.331 259.54 107.31 263.114 102.794C266.687 98.2789 270.712 94.8701 275.189 92.5681C279.709 90.1775 284.38 88.451 289.202 87.3885C295.014 86.149 299.728 85.0422 303.344 84.0683C306.96 83.0058 309.586 81.4121 311.222 79.2872C312.901 77.0737 313.741 73.6649 313.741 69.0608V68.264C313.741 58.259 312.298 50.5118 309.414 45.0224C306.53 39.5329 302.375 36.7882 296.951 36.7882C291.225 36.7882 286.684 39.3558 283.326 44.4911C280.011 49.6264 277.772 55.6914 276.61 62.686L254.783 56.3111C256.505 43.9156 259.347 33.5565 263.307 25.2338C267.268 16.8225 272.111 10.5362 277.837 6.37484C283.562 2.12495 289.891 0 296.822 0C301.6 0 306.358 1.15101 311.093 3.45304C315.829 5.75506 320.155 9.56226 324.073 14.8746C327.99 20.0985 331.133 27.2259 333.501 36.2569C335.911 45.288 337.117 56.5768 337.117 70.1233V206.651H314.645V178.629H313.87C312.449 184.295 310.447 189.607 307.864 194.566C305.324 199.435 302.117 203.375 298.243 206.386C294.411 209.307 289.912 210.768 284.746 210.768ZM290.816 175.441C295.509 175.441 299.577 173.538 303.021 169.73C306.465 165.835 309.113 160.699 310.964 154.324C312.858 147.95 313.805 140.999 313.805 133.473V109.435C313.073 110.674 311.825 111.825 310.06 112.888C308.338 113.95 306.401 114.88 304.248 115.677C302.096 116.474 299.965 117.182 297.855 117.802C295.746 118.422 293.916 118.953 292.366 119.396C288.879 120.37 285.758 121.963 283.003 124.177C280.248 126.39 278.074 129.489 276.481 133.473C274.888 137.369 274.091 142.416 274.091 148.614C274.091 157.468 275.663 164.152 278.805 168.668C281.948 173.183 285.952 175.441 290.816 175.441Z" fill="white"/>
<path d="M156.763 283.149V2.65617H179.751V36.3898H181.108C182.313 31.4315 184.013 26.1634 186.209 20.5854C188.405 14.9189 191.375 10.0935 195.12 6.10921C198.866 2.0364 203.644 0 209.456 0C217.119 0 224.029 4.02854 230.185 12.0856C236.384 20.0542 241.292 31.8742 244.908 47.5457C248.567 63.1287 250.397 82.2532 250.397 104.919C250.397 127.32 248.61 146.356 245.037 162.027C241.464 177.699 236.599 189.652 230.443 197.886C224.287 206.12 217.313 210.237 209.521 210.237C203.838 210.237 199.124 208.289 195.379 204.394C191.633 200.498 188.62 195.805 186.338 190.316C184.1 184.738 182.356 179.47 181.108 174.511H180.139V283.149H156.763ZM179.687 104.654C179.687 117.846 180.591 129.401 182.399 139.317C184.25 149.233 186.898 156.981 190.342 162.559C193.829 168.048 198.048 170.793 202.999 170.793C208.165 170.793 212.491 167.96 215.978 162.293C219.465 156.538 222.091 148.702 223.856 138.786C225.664 128.781 226.569 117.403 226.569 104.654C226.569 91.9926 225.686 80.7481 223.921 70.9202C222.156 61.0923 219.53 53.3893 216.043 47.8113C212.556 42.2334 208.208 39.4444 202.999 39.4444C198.005 39.4444 193.764 42.1448 190.277 47.5457C186.79 52.9466 184.143 60.5168 182.334 70.2561C180.569 79.9955 179.687 91.4614 179.687 104.654Z" fill="white"/>
<path d="M95.0979 210.768C88.8126 210.768 83.1515 208.466 78.1146 203.862C73.1208 199.17 69.1602 192.264 66.2328 183.144C63.3484 174.024 61.9062 162.78 61.9062 149.41C61.9062 137.9 62.9395 128.382 65.0059 120.856C67.0723 113.331 69.8921 107.31 73.4652 102.794C77.0384 98.2789 81.0636 94.8701 85.5408 92.5681C90.0611 90.1775 94.732 88.451 99.5536 87.3885C105.365 86.149 110.079 85.0422 113.696 84.0683C117.312 83.0058 119.938 81.4121 121.574 79.2872C123.253 77.0737 124.092 73.6649 124.092 69.0608V68.264C124.092 58.259 122.65 50.5118 119.766 45.0224C116.881 39.5329 112.727 36.7882 107.303 36.7882C101.577 36.7882 97.0352 39.3558 93.6773 44.4911C90.3624 49.6264 88.1238 55.6914 86.9614 62.686L65.135 56.3111C66.857 43.9156 69.6983 33.5565 73.6589 25.2338C77.6196 16.8225 82.4627 10.5362 88.1884 6.37484C93.914 2.12495 100.242 0 107.173 0C111.952 0 116.709 1.15101 121.445 3.45304C126.18 5.75506 130.507 9.56226 134.424 14.8746C138.342 20.0985 141.484 27.2259 143.852 36.2569C146.263 45.288 147.468 56.5768 147.468 70.1233V206.651H124.996V178.629H124.221C122.801 184.295 120.799 189.607 118.216 194.566C115.676 199.435 112.469 203.375 108.594 206.386C104.763 209.307 100.264 210.768 95.0979 210.768ZM101.168 175.441C105.86 175.441 109.929 173.538 113.373 169.73C116.817 165.835 119.464 160.699 121.315 154.324C123.21 147.95 124.157 140.999 124.157 133.473V109.435C123.425 110.674 122.176 111.825 120.411 112.888C118.689 113.95 116.752 114.88 114.6 115.677C112.447 116.474 110.316 117.182 108.207 117.802C106.097 118.422 104.268 118.953 102.718 119.396C99.2307 120.37 96.1096 121.963 93.3544 124.177C90.5992 126.39 88.4251 129.489 86.8323 133.473C85.2394 137.369 84.443 142.416 84.443 148.614C84.443 157.468 86.0143 164.152 89.157 168.668C92.2997 173.183 96.3033 175.441 101.168 175.441Z" fill="white"/>
<path d="M66.1084 2.65625V42.1006H23.3596V206.651H0.5V2.65625H66.1084Z" fill="white"/>
<path d="M1373.61 206.651V41.7022H1352.43C1347.05 41.7022 1342.91 44.2698 1340.03 49.4051C1337.14 54.5404 1335.72 60.9153 1335.77 68.5297C1335.72 76.1441 1337.08 82.4304 1339.84 87.3886C1342.59 92.3468 1346.53 94.8259 1351.65 94.8259H1380.97V129.888H1351.65C1343.73 129.888 1336.89 127.32 1331.12 122.185C1325.35 117.049 1320.92 109.789 1317.82 100.404C1314.72 91.0187 1313.17 80.0398 1313.17 67.4672C1313.17 54.3634 1314.74 42.986 1317.88 33.3352C1321.07 23.5959 1325.59 16.07 1331.44 10.7576C1337.34 5.35671 1344.33 2.65625 1352.43 2.65625H1395.5V206.651H1373.61ZM1309.55 206.651L1337.25 101.998H1360.31L1332.54 206.651H1309.55Z" fill="white"/>
<path d="M1241.44 141.575L1281.16 2.65625H1305.18V206.651H1282.58V67.6L1242.99 206.651H1218.91V2.65625H1241.44V141.575Z" fill="white"/>
<path d="M1127.71 42.1006V2.65625H1214.5V42.1006H1182.41V206.651H1159.81V42.1006H1127.71Z" fill="white"/>
<path d="M1114.08 84.7324V124.177H1061.26V84.7324H1114.08ZM1068.49 2.65625V206.651H1045.95V2.65625H1068.49ZM1129.38 2.65625V206.651H1106.91V2.65625H1129.38Z" fill="white"/>
<path d="M984.286 210.768C978.001 210.768 972.34 208.466 967.303 203.862C962.309 199.17 958.349 192.264 955.421 183.144C952.537 174.024 951.095 162.78 951.095 149.41C951.095 137.9 952.128 128.382 954.194 120.856C956.261 113.331 959.081 107.31 962.654 102.794C966.227 98.2789 970.252 94.8701 974.729 92.5681C979.25 90.1775 983.92 88.451 988.742 87.3885C994.554 86.149 999.268 85.0422 1002.88 84.0683C1006.5 83.0058 1009.13 81.4121 1010.76 79.2872C1012.44 77.0737 1013.28 73.6649 1013.28 69.0608V68.264C1013.28 58.259 1011.84 50.5118 1008.95 45.0224C1006.07 39.5329 1001.92 36.7882 996.491 36.7882C990.765 36.7882 986.224 39.3558 982.866 44.4911C979.551 49.6264 977.312 55.6914 976.15 62.686L954.323 56.3111C956.045 43.9156 958.887 33.5565 962.847 25.2338C966.808 16.8225 971.651 10.5362 977.377 6.37484C983.103 2.12495 989.431 0 996.362 0C1001.14 0 1005.9 1.15101 1010.63 3.45304C1015.37 5.75506 1019.7 9.56226 1023.61 14.8746C1027.53 20.0985 1030.67 27.2259 1033.04 36.2569C1035.45 45.288 1036.66 56.5768 1036.66 70.1233V206.651H1014.18V178.629H1013.41C1011.99 184.295 1009.99 189.607 1007.4 194.566C1004.86 199.435 1001.66 203.375 997.783 206.386C993.951 209.307 989.452 210.768 984.286 210.768ZM990.356 175.441C995.049 175.441 999.117 173.538 1002.56 169.73C1006.01 165.835 1008.65 160.699 1010.5 154.324C1012.4 147.95 1013.35 140.999 1013.35 133.473V109.435C1012.61 110.674 1011.36 111.825 1009.6 112.888C1007.88 113.95 1005.94 114.88 1003.79 115.677C1001.64 116.474 999.505 117.182 997.395 117.802C995.286 118.422 993.456 118.953 991.906 119.396C988.419 120.37 985.298 121.963 982.543 124.177C979.788 126.39 977.614 129.489 976.021 133.473C974.428 137.369 973.631 142.416 973.631 148.614C973.631 157.468 975.203 164.152 978.345 168.668C981.488 173.183 985.492 175.441 990.356 175.441Z" fill="white"/>
<path d="M856.303 283.149V2.65617H879.292V36.3898H880.648C881.853 31.4315 883.553 26.1634 885.749 20.5854C887.945 14.9189 890.915 10.0935 894.66 6.10921C898.406 2.0364 903.184 0 908.996 0C916.659 0 923.569 4.02854 929.725 12.0856C935.924 20.0542 940.832 31.8742 944.448 47.5457C948.107 63.1287 949.937 82.2532 949.937 104.919C949.937 127.32 948.15 146.356 944.577 162.027C941.004 177.699 936.139 189.652 929.983 197.886C923.827 206.12 916.853 210.237 909.061 210.237C903.378 210.237 898.664 208.289 894.919 204.394C891.173 200.498 888.16 195.805 885.878 190.316C883.64 184.738 881.896 179.47 880.648 174.511H879.679V283.149H856.303ZM879.227 104.654C879.227 117.846 880.131 129.401 881.939 139.317C883.79 149.233 886.438 156.981 889.882 162.559C893.369 168.048 897.588 170.793 902.539 170.793C907.705 170.793 912.031 167.96 915.518 162.293C919.005 156.538 921.631 148.702 923.396 138.786C925.205 128.781 926.109 117.403 926.109 104.654C926.109 91.9926 925.226 80.7481 923.461 70.9202C921.696 61.0923 919.07 53.3893 915.583 47.8113C912.096 42.2334 907.748 39.4444 902.539 39.4444C897.545 39.4444 893.304 42.1448 889.817 47.5457C886.33 52.9466 883.683 60.5168 881.875 70.2561C880.109 79.9955 879.227 91.4614 879.227 104.654Z" fill="white"/>
<path d="M794.638 210.768C788.353 210.768 782.692 208.466 777.655 203.862C772.661 199.17 768.7 192.264 765.773 183.144C762.888 174.024 761.446 162.78 761.446 149.41C761.446 137.9 762.479 128.382 764.546 120.856C766.612 113.331 769.432 107.31 773.005 102.794C776.578 98.2789 780.604 94.8701 785.081 92.5681C789.601 90.1775 794.272 88.451 799.094 87.3885C804.905 86.149 809.619 85.0422 813.236 84.0683C816.852 83.0058 819.478 81.4121 821.114 79.2872C822.793 77.0737 823.632 73.6649 823.632 69.0608V68.264C823.632 58.259 822.19 50.5118 819.306 45.0224C816.421 39.5329 812.267 36.7882 806.843 36.7882C801.117 36.7882 796.575 39.3558 793.217 44.4911C789.902 49.6264 787.664 55.6914 786.501 62.686L764.675 56.3111C766.397 43.9156 769.238 33.5565 773.199 25.2338C777.16 16.8225 782.003 10.5362 787.728 6.37484C793.454 2.12495 799.782 0 806.714 0C811.492 0 816.249 1.15101 820.985 3.45304C825.72 5.75506 830.047 9.56226 833.964 14.8746C837.882 20.0985 841.025 27.2259 843.392 36.2569C845.803 45.288 847.008 56.5768 847.008 70.1233V206.651H824.536V178.629H823.761C822.341 184.295 820.339 189.607 817.756 194.566C815.216 199.435 812.009 203.375 808.134 206.386C804.303 209.307 799.804 210.768 794.638 210.768ZM800.708 175.441C805.4 175.441 809.469 173.538 812.913 169.73C816.357 165.835 819.004 160.699 820.856 154.324C822.75 147.95 823.697 140.999 823.697 133.473V109.435C822.965 110.674 821.717 111.825 819.951 112.888C818.229 113.95 816.292 114.88 814.14 115.677C811.987 116.474 809.856 117.182 807.747 117.802C805.637 118.422 803.808 118.953 802.258 119.396C798.771 120.37 795.65 121.963 792.894 124.177C790.139 126.39 787.965 129.489 786.372 133.473C784.779 137.369 783.983 142.416 783.983 148.614C783.983 157.468 785.554 164.152 788.697 168.668C791.84 173.183 795.843 175.441 800.708 175.441Z" fill="white"/>
<path d="M765.648 2.65625V42.1006H722.9V206.651H700.04V2.65625H765.648Z" fill="white"/>
</svg>
