<svg width="66" height="13" viewBox="0 0 66 13" fill="none" xmlns="http://www.w3.org/2000/svg">
<path d="M62.0326 0.992188C64.4541 0.992188 65.7501 2.97314 65.7501 5.53472C65.7501 8.07922 64.3518 10.1285 61.9985 10.1285C60.856 10.1285 59.9693 9.68447 59.3724 8.86477L59.4065 12.673C59.4065 12.8096 59.3383 12.8608 59.2189 12.8608H57.4796C57.3602 12.8608 57.292 12.8096 57.292 12.673L57.3602 6.23488L57.292 1.35081C57.292 1.21419 57.3602 1.16296 57.4796 1.16296H59.1848C59.3042 1.16296 59.3724 1.21419 59.3724 1.35081L59.3383 2.35836C59.9352 1.5045 60.856 0.992188 62.0326 0.992188ZM61.4358 8.72815C62.9364 8.72815 63.6697 7.54983 63.6697 5.65426C63.6697 3.62207 62.9364 2.40959 61.4699 2.40959C60.1057 2.40959 59.3042 3.4513 59.2872 5.48349C59.2701 7.54983 60.0375 8.72815 61.4358 8.72815Z" fill="black"/>
<path d="M52.5349 8.87475C53.6092 8.87475 54.3083 8.324 54.5641 7.18809C54.5812 7.06761 54.6665 7.01598 54.7688 7.01598H56.3547C56.474 7.01598 56.5593 7.08482 56.5252 7.22251C56.2694 8.92638 54.854 10.2688 52.5178 10.2688C49.67 10.2688 48.1523 8.35843 48.1523 5.65632C48.1523 2.86817 49.7553 0.992188 52.4496 0.992188C55.1439 0.992188 56.6787 2.79932 56.7469 5.79401C56.7469 5.91449 56.6787 5.98333 56.5593 5.98333H50.2157C50.301 7.92815 51.0683 8.87475 52.5349 8.87475ZM52.4496 2.36905C51.2048 2.36905 50.4886 3.16075 50.2839 4.64088H54.53C54.4618 3.43613 53.7968 2.36905 52.4496 2.36905Z" fill="black"/>
<path d="M42.443 1.26562C42.5616 1.26562 42.6293 1.31649 42.6293 1.45211L42.5785 4.36808H43.8485C46.4053 4.36808 47.743 5.24965 47.743 7.16538C47.743 9.09805 46.3884 9.99658 43.8485 9.99658H40.699C40.5804 9.99658 40.5127 9.94572 40.5127 9.81009L40.5804 5.69044L40.5296 1.45211C40.5296 1.31649 40.5974 1.26562 40.7159 1.26562H42.443ZM42.5616 5.72435L42.5954 8.64031H43.8654C45.0168 8.64031 45.6772 8.21648 45.6772 7.21624C45.6772 6.26685 45.1523 5.72435 43.8654 5.72435H42.5616Z" fill="black"/>
<path d="M36.1127 0.992188C38.5342 0.992188 39.8302 2.97314 39.8302 5.53472C39.8302 8.07922 38.4319 10.1285 36.0786 10.1285C34.9361 10.1285 34.0493 9.68447 33.4525 8.86477L33.4866 12.673C33.4866 12.8096 33.4184 12.8608 33.299 12.8608H31.5596C31.4403 12.8608 31.3721 12.8096 31.3721 12.673L31.4403 6.23488L31.3721 1.35081C31.3721 1.21419 31.4403 1.16296 31.5596 1.16296H33.2649C33.3843 1.16296 33.4525 1.21419 33.4525 1.35081L33.4184 2.35836C34.0152 1.5045 34.9361 0.992188 36.1127 0.992188ZM35.5159 8.72815C37.0165 8.72815 37.7498 7.54983 37.7498 5.65426C37.7498 3.62207 37.0165 2.40959 35.55 2.40959C34.1858 2.40959 33.3843 3.4513 33.3672 5.48349C33.3502 7.54983 34.1175 8.72815 35.5159 8.72815Z" fill="black"/>
<path d="M28.3708 2.29061L28.3367 1.35096C28.3367 1.21429 28.4049 1.16303 28.5243 1.16303H30.2295C30.3489 1.16303 30.4171 1.21429 30.4171 1.35096L30.3318 5.51959L30.4171 9.77363C30.4171 9.91031 30.3489 9.96156 30.2295 9.96156H28.5243C28.4049 9.96156 28.3367 9.91031 28.3367 9.77363L28.3708 8.74856C27.7739 9.61987 26.8531 10.1324 25.6765 10.1324C23.255 10.1324 21.959 8.1506 21.959 5.58792C21.959 3.04233 23.3573 0.992188 25.7106 0.992188C26.8701 0.992188 27.7739 1.43639 28.3708 2.29061ZM26.2221 8.73147C27.6034 8.73147 28.4049 7.68932 28.4219 5.63918C28.439 3.55487 27.6716 2.39312 26.2733 2.37603C24.7727 2.35895 24.0394 3.55487 24.0394 5.46833C24.0394 7.50139 24.7897 8.74856 26.2221 8.73147Z" fill="black"/>
<path d="M20.3089 1.3843C20.3604 1.29953 20.4463 1.26562 20.5493 1.26562H22.1979C22.3524 1.26562 22.4039 1.35039 22.3181 1.48602L19.8281 5.01231L22.7474 9.77619C22.8161 9.89486 22.7645 9.99658 22.6272 9.99658H20.6352C20.5321 9.99658 20.4634 9.96267 20.4119 9.86095L19.6048 8.41992L18.2139 6.08036H16.9431L17.0118 9.81009C17.0118 9.94572 16.9431 9.99658 16.8229 9.99658H15.0541C14.9339 9.99658 14.8652 9.94572 14.8652 9.81009L14.9339 5.55481L14.8652 1.45211C14.8652 1.31649 14.9339 1.26562 15.0541 1.26562H16.8229C16.9431 1.26562 17.0118 1.31649 17.0118 1.45211L16.9603 4.62238H18.2139L20.3089 1.3843Z" fill="black"/>
<path d="M5.33203 5.58382C5.33203 2.91418 6.71154 0.75 8.41324 0.75V0.75C10.1149 0.75 11.4944 2.91418 11.4944 5.58382V5.58382C11.4944 8.25347 10.1149 10.4176 8.41324 10.4176V10.4176C6.71154 10.4176 5.33203 8.25347 5.33203 5.58382V5.58382Z" fill="black"/>
<path d="M0.5 5.45319C0.5 3.20302 1.58162 1.37891 2.91587 1.37891V1.37891C4.25011 1.37891 5.33173 3.20302 5.33173 5.45319V5.45319C5.33173 7.70335 4.25011 9.52746 2.91587 9.52746V9.52746C1.58162 9.52746 0.5 7.70335 0.5 5.45319V5.45319Z" fill="black"/>
</svg>
