<svg width="147" height="32" viewBox="0 0 147 32" fill="none" xmlns="http://www.w3.org/2000/svg">
<rect width="147" height="32" fill="#EEEEEE"/>
<path d="M19.7431 19.25V13.1136H24.9246V19.25H23.5304V14.3002H21.1254V19.25H19.7431ZM28.7509 19.3699C28.1517 19.3699 27.6323 19.238 27.1929 18.9743C26.7534 18.7107 26.4125 18.3418 26.1702 17.8677C25.9305 17.3936 25.8106 16.8397 25.8106 16.2058C25.8106 15.5719 25.9305 15.0166 26.1702 14.5399C26.4125 14.0631 26.7534 13.6929 27.1929 13.4292C27.6323 13.1656 28.1517 13.0337 28.7509 13.0337C29.3502 13.0337 29.8696 13.1656 30.309 13.4292C30.7485 13.6929 31.088 14.0631 31.3277 14.5399C31.5701 15.0166 31.6913 15.5719 31.6913 16.2058C31.6913 16.8397 31.5701 17.3936 31.3277 17.8677C31.088 18.3418 30.7485 18.7107 30.309 18.9743C29.8696 19.238 29.3502 19.3699 28.7509 19.3699ZM28.7589 18.2113C29.0839 18.2113 29.3555 18.1221 29.5739 17.9436C29.7923 17.7625 29.9548 17.5202 30.0613 17.2165C30.1705 16.9129 30.2251 16.5747 30.2251 16.2018C30.2251 15.8263 30.1705 15.4867 30.0613 15.1831C29.9548 14.8768 29.7923 14.6331 29.5739 14.452C29.3555 14.2709 29.0839 14.1803 28.7589 14.1803C28.426 14.1803 28.149 14.2709 27.928 14.452C27.7096 14.6331 27.5458 14.8768 27.4366 15.1831C27.33 15.4867 27.2768 15.8263 27.2768 16.2018C27.2768 16.5747 27.33 16.9129 27.4366 17.2165C27.5458 17.5202 27.7096 17.7625 27.928 17.9436C28.149 18.1221 28.426 18.2113 28.7589 18.2113ZM33.9755 17.2924L36.4325 13.1136H37.9186V19.25H36.5204V15.0672L34.0714 19.25H32.5813V13.1136H33.9755V17.2924ZM41.7429 19.3699C41.1304 19.3699 40.6044 19.2354 40.1649 18.9664C39.7281 18.6974 39.3912 18.3258 39.1542 17.8517C38.9198 17.375 38.8026 16.8263 38.8026 16.2058C38.8026 15.5826 38.9224 15.0326 39.1621 14.5558C39.4019 14.0764 39.7401 13.7036 40.1769 13.4372C40.6163 13.1682 41.1357 13.0337 41.7349 13.0337C42.233 13.0337 42.6738 13.1256 43.0573 13.3094C43.4435 13.4905 43.7511 13.7475 43.9802 14.0804C44.2092 14.4107 44.3397 14.7969 44.3717 15.239H42.9894C42.9335 14.9434 42.8003 14.697 42.5899 14.4999C42.3821 14.3002 42.1038 14.2003 41.7549 14.2003C41.4593 14.2003 41.1996 14.2802 40.9759 14.44C40.7522 14.5971 40.5777 14.8235 40.4525 15.1191C40.33 15.4148 40.2688 15.769 40.2688 16.1818C40.2688 16.6 40.33 16.9595 40.4525 17.2605C40.5751 17.5588 40.7468 17.7892 40.9679 17.9516C41.1916 18.1114 41.454 18.1913 41.7549 18.1913C41.968 18.1913 42.1584 18.1514 42.3262 18.0715C42.4967 17.9889 42.6392 17.8704 42.7537 17.7159C42.8682 17.5614 42.9468 17.3737 42.9894 17.1526H44.3717C44.337 17.5867 44.2092 17.9716 43.9881 18.3072C43.7671 18.6401 43.4661 18.9011 43.0853 19.0902C42.7044 19.2766 42.257 19.3699 41.7429 19.3699ZM45.2217 19.25V13.1136H46.6679V15.5906H47.1952L49.0409 13.1136H50.7828L48.5096 16.1259L50.8067 19.25H49.0569L47.375 16.9369H46.6679V19.25H45.2217Z" fill="#AEAEAE"/>
<path d="M130.669 17.6644C131.142 17.6644 131.588 17.5752 132.007 17.3967C132.426 17.2141 132.796 16.9651 133.115 16.6497C133.435 16.3301 133.684 15.9607 133.862 15.5415C134.045 15.1223 134.136 14.6741 134.136 14.1968C134.136 13.7195 134.045 13.2712 133.862 12.8521C133.684 12.4329 133.435 12.0635 133.115 11.7439C132.796 11.4243 132.426 11.1753 132.007 10.9968C131.588 10.8184 131.142 10.7291 130.669 10.7291C130.191 10.7291 129.743 10.8184 129.324 10.9968C128.905 11.1753 128.535 11.4243 128.216 11.7439C127.896 12.0635 127.645 12.4329 127.462 12.8521C127.284 13.2712 127.195 13.7195 127.195 14.1968C127.195 14.6741 127.284 15.1223 127.462 15.5415C127.645 15.9607 127.896 16.3301 128.216 16.6497C128.535 16.9651 128.905 17.2141 129.324 17.3967C129.743 17.5752 130.191 17.6644 130.669 17.6644ZM130.669 19.1835C129.98 19.1835 129.334 19.0527 128.732 18.7913C128.135 18.5298 127.606 18.1708 127.145 17.7142C126.688 17.2577 126.329 16.7285 126.068 16.1267C125.811 15.5249 125.682 14.8816 125.682 14.1968C125.682 13.512 125.811 12.8687 126.068 12.2668C126.329 11.665 126.688 11.1359 127.145 10.6793C127.606 10.2186 128.137 9.85962 128.739 9.60229C129.34 9.34082 129.984 9.21008 130.669 9.21008C131.353 9.21008 131.995 9.34082 132.592 9.60229C133.194 9.85962 133.723 10.2186 134.18 10.6793C134.641 11.1359 135 11.665 135.257 12.2668C135.518 12.8687 135.649 13.512 135.649 14.1968C135.649 14.8816 135.518 15.5249 135.257 16.1267C135 16.7285 134.641 17.2577 134.18 17.7142C133.723 18.1708 133.194 18.5298 132.592 18.7913C131.995 19.0527 131.353 19.1835 130.669 19.1835ZM136.614 21.3064C136.469 21.3064 136.33 21.2815 136.197 21.2317C136.064 21.1819 135.946 21.1051 135.842 21.0013L132.642 17.7952L134.18 16.2948L137.367 19.4823C137.475 19.5861 137.552 19.7023 137.598 19.8309C137.643 19.9637 137.666 20.0986 137.666 20.2356C137.666 20.439 137.62 20.6195 137.529 20.7772C137.438 20.9391 137.311 21.0677 137.149 21.1632C136.992 21.2587 136.813 21.3064 136.614 21.3064Z" fill="#B8B8B8" fill-opacity="0.5"/>
</svg>
